<svg id="Calque_1" data-name="Calque 1" xmlns="http://www.w3.org/2000/svg" viewBox="0 0 265.2 160.21"><defs><style>.cls-1{font-size:46.97px;font-family:Montserrat-Thin, Montserrat Thin;font-weight:200;}.cls-1,.cls-9{fill:#1d1d1b;}.cls-2{letter-spacing:-0.01em;}.cls-3{letter-spacing:-0.04em;}.cls-4{letter-spacing:-0.02em;}.cls-5{fill:#81ceeb;}.cls-6{fill:#e4eaf7;opacity:0.69;}.cls-7{fill:#fcd2a8;}.cls-8{fill:#93cdb9;}.cls-10{fill:#f7ac6c;}</style></defs><title>logo</title><text class="cls-1" transform="translate(0 143.26)">O<tspan class="cls-2" x="39.26" y="0">P</tspan><tspan x="72.14" y="0">L</tspan><tspan class="cls-3" x="99.38" y="0">A</tspan><tspan class="cls-4" x="129.81" y="0">Y</tspan><tspan x="157.52" y="0">NER</tspan></text><path class="cls-5" d="M179.49,73.11,179.72,57V53.85s.07-.91,1.66-1.93,14.18-5.6,14.18-5.6l6-2.54s2.29.25.84,2.78c-3.85,1.68-14.09,5.66-14.09,5.66L183.75,54l-1,.36-.12,18.72Z" transform="translate(-45.18 -43.78)"/><path class="cls-6" d="M169.09,130.59v3.78h24.34v-3.78s-3.78,1.89-7.09,0-3.54-8.5-3.54-8.5l.47-13.71L212.8,60.65H150l29.77,47.26v13.94s-.94,7.8-4.25,9.21A7.47,7.47,0,0,1,169.09,130.59Z" transform="translate(-45.18 -43.78)"/><polygon class="cls-7" points="116.96 29.36 118.98 31.97 153.15 31.97 155.16 29.36 116.96 29.36"/><polygon class="cls-8" points="120.52 33.87 118.98 31.97 153.15 31.97 146.5 41.93 125.5 41.93 120.52 33.87"/><path class="cls-5" d="M178.87,98.17l-8.19-12.46h21l-7.47,12.46a3.86,3.86,0,0,1-2.83,1.43A3.18,3.18,0,0,1,178.87,98.17Z" transform="translate(-45.18 -43.78)"/><path class="cls-9" d="M194.54,97.51Z" transform="translate(-45.18 -43.78)"/><path class="cls-10" d="M150.07,60.66l9.4,14.93,1.24,2a14,14,0,0,1-3.21.36,14.63,14.63,0,1,1,14.4-17.24Z" transform="translate(-45.18 -43.78)"/><path class="cls-7" d="M150.07,60.66l9.4,14.93A12.48,12.48,0,1,1,169.7,60.66Z" transform="translate(-45.18 -43.78)"/></svg>