<svg id="Calque_1" data-name="Calque 1" xmlns="http://www.w3.org/2000/svg" xmlns:xlink="http://www.w3.org/1999/xlink" viewBox="0 0 260.18 92.56"><defs><style>.cls-1{fill:none;}.cls-1,.cls-2{clip-rule:evenodd;}.cls-2,.cls-5,.cls-7{fill:#ededed;}.cls-3{clip-path:url(#clip-path);}.cls-16,.cls-4{fill:#53acfe;}.cls-5{fill-rule:evenodd;}.cls-6{clip-path:url(#clip-path-2);}.cls-7{opacity:0.69;}.cls-8{clip-path:url(#clip-path-3);}.cls-9{fill:#fcd2a8;}.cls-10{clip-path:url(#clip-path-4);}.cls-11{fill:#93cdb9;}.cls-12{clip-path:url(#clip-path-5);}.cls-13{clip-path:url(#clip-path-6);}.cls-14{fill:#f7ac6c;}.cls-15{clip-path:url(#clip-path-7);}.cls-16{font-size:30px;font-family:Montserrat-Regular, Montserrat;letter-spacing:0.05em;}.cls-17{letter-spacing:0.04em;}.cls-18{letter-spacing:0.05em;}.cls-19{letter-spacing:0.01em;}.cls-20{letter-spacing:0.03em;}.cls-21{letter-spacing:0em;}</style><clipPath id="clip-path" transform="translate(-582.85 -404)"><path class="cls-1" d="M621.62,435.73l.21-14.68v-2.87s.06-.83,1.53-1.76,13.08-5.11,13.08-5.11L642,409s2.11.23.77,2.53c-3.55,1.53-13,5.16-13,5.16l-4.2,1.62-.93.33-.11,17.06Z"/></clipPath><clipPath id="clip-path-2" transform="translate(-582.85 -404)"><path class="cls-2" d="M612,488.11v3.45h22.44v-3.45s-3.48,1.73-6.54,0-3.26-7.74-3.26-7.74l.43-12.5,27.23-43.5H594.42l27.46,43.07v12.71s-.87,7.11-3.92,8.39A6.94,6.94,0,0,1,612,488.11Z"/></clipPath><clipPath id="clip-path-3" transform="translate(-582.85 -404)"><polygon class="cls-1" points="605.62 435.76 607.48 438.14 638.99 438.14 640.85 435.76 605.62 435.76"/></clipPath><clipPath id="clip-path-4" transform="translate(-582.85 -404)"><polygon class="cls-1" points="608.9 439.87 607.48 438.14 638.99 438.14 632.86 447.21 613.49 447.21 608.9 439.87"/></clipPath><clipPath id="clip-path-5" transform="translate(-582.85 -404)"><path class="cls-1" d="M621.05,458.57l-7.56-11.36h19.37L626,458.57a3.56,3.56,0,0,1-2.61,1.3A2.92,2.92,0,0,1,621.05,458.57Z"/></clipPath><clipPath id="clip-path-6" transform="translate(-582.85 -404)"><path class="cls-1" d="M594.49,424.38,603.16,438l1.14,1.82a13.33,13.33,0,1,1,10.32-15.38Z"/></clipPath><clipPath id="clip-path-7" transform="translate(-582.85 -404)"><path class="cls-1" d="M594.49,424.38,603.16,438A11.51,11.51,0,0,1,590,428.75a11.38,11.38,0,0,1,9.12-13.15,11.51,11.51,0,0,1,13.47,8.78Z"/></clipPath></defs><title>logo1</title><g class="cls-3"><rect class="cls-4" x="33.77" width="31.57" height="36.73"/></g><path class="cls-5" d="M612,488.11v3.45h22.44v-3.45s-3.48,1.73-6.54,0-3.26-7.74-3.26-7.74l.43-12.5,27.23-43.5H594.42l27.46,43.07v12.71s-.87,7.11-3.92,8.39A6.94,6.94,0,0,1,612,488.11Z" transform="translate(-582.85 -404)"/><g class="cls-6"><rect class="cls-7" x="6.57" y="15.37" width="67.91" height="77.18"/></g><g class="cls-8"><rect class="cls-9" x="17.77" y="26.76" width="45.23" height="12.38"/></g><g class="cls-10"><rect class="cls-11" x="19.63" y="29.14" width="41.51" height="19.08"/></g><g class="cls-12"><rect class="cls-4" x="25.64" y="38.21" width="29.37" height="22.66"/></g><g class="cls-13"><rect class="cls-14" y="4.47" width="36.77" height="36.67"/></g><g class="cls-15"><rect class="cls-9" x="1.97" y="6.38" width="32.76" height="32.75"/></g><text class="cls-16" transform="translate(81.15 65)">O<tspan class="cls-17" x="26.58" y="0">P</tspan><tspan class="cls-18" x="49.23" y="0">L</tspan><tspan class="cls-19" x="68.37" y="0">A</tspan><tspan class="cls-20" x="90.06" y="0">Y</tspan><tspan x="110.07" y="0">NE</tspan><tspan class="cls-21" x="157.35" y="0">R</tspan></text></svg>